<svg id="visual" viewBox="0 0 960 540" width="960" height="540" xmlns="http://www.w3.org/2000/svg" xmlns:xlink="http://www.w3.org/1999/xlink" version="1.1"><rect x="0" y="0" width="960" height="540" fill="#3f98dd"></rect><path d="M0 389L22.8 389.3C45.7 389.7 91.3 390.3 137 387.8C182.7 385.3 228.3 379.7 274 376.5C319.7 373.3 365.3 372.7 411.2 373.7C457 374.7 503 377.3 548.8 380.3C594.7 383.3 640.3 386.7 686 388.8C731.7 391 777.3 392 823 381.5C868.7 371 914.3 349 937.2 338L960 327L960 541L937.2 541C914.3 541 868.7 541 823 541C777.3 541 731.7 541 686 541C640.3 541 594.7 541 548.8 541C503 541 457 541 411.2 541C365.3 541 319.7 541 274 541C228.3 541 182.7 541 137 541C91.3 541 45.7 541 22.8 541L0 541Z" fill="#4dcf0b"></path><path d="M0 367L22.8 370.7C45.7 374.3 91.3 381.7 137 392.2C182.7 402.7 228.3 416.3 274 412.3C319.7 408.3 365.3 386.7 411.2 385C457 383.3 503 401.7 548.8 408.5C594.7 415.3 640.3 410.7 686 400C731.7 389.3 777.3 372.7 823 370.3C868.7 368 914.3 380 937.2 386L960 392L960 541L937.2 541C914.3 541 868.7 541 823 541C777.3 541 731.7 541 686 541C640.3 541 594.7 541 548.8 541C503 541 457 541 411.2 541C365.3 541 319.7 541 274 541C228.3 541 182.7 541 137 541C91.3 541 45.7 541 22.8 541L0 541Z" fill="#39b212"></path><path d="M0 427L22.8 432.5C45.7 438 91.3 449 137 445.5C182.7 442 228.3 424 274 420.8C319.7 417.7 365.3 429.3 411.2 435.3C457 441.3 503 441.7 548.8 438.7C594.7 435.7 640.3 429.3 686 423.8C731.7 418.3 777.3 413.7 823 417.3C868.7 421 914.3 433 937.2 439L960 445L960 541L937.2 541C914.3 541 868.7 541 823 541C777.3 541 731.7 541 686 541C640.3 541 594.7 541 548.8 541C503 541 457 541 411.2 541C365.3 541 319.7 541 274 541C228.3 541 182.7 541 137 541C91.3 541 45.7 541 22.8 541L0 541Z" fill="#279513"></path><path d="M0 448L22.8 452.2C45.7 456.3 91.3 464.7 137 466.7C182.7 468.7 228.3 464.3 274 464.8C319.7 465.3 365.3 470.7 411.2 472.5C457 474.3 503 472.7 548.8 471.3C594.7 470 640.3 469 686 464.5C731.7 460 777.3 452 823 454.8C868.7 457.7 914.3 471.3 937.2 478.2L960 485L960 541L937.2 541C914.3 541 868.7 541 823 541C777.3 541 731.7 541 686 541C640.3 541 594.7 541 548.8 541C503 541 457 541 411.2 541C365.3 541 319.7 541 274 541C228.3 541 182.7 541 137 541C91.3 541 45.7 541 22.8 541L0 541Z" fill="#167a11"></path><path d="M0 499L22.8 496.2C45.7 493.3 91.3 487.7 137 485.8C182.7 484 228.3 486 274 490.3C319.7 494.7 365.3 501.3 411.2 502.7C457 504 503 500 548.8 497.2C594.7 494.3 640.3 492.7 686 493.8C731.7 495 777.3 499 823 498.8C868.7 498.7 914.3 494.3 937.2 492.2L960 490L960 541L937.2 541C914.3 541 868.7 541 823 541C777.3 541 731.7 541 686 541C640.3 541 594.7 541 548.8 541C503 541 457 541 411.2 541C365.3 541 319.7 541 274 541C228.3 541 182.7 541 137 541C91.3 541 45.7 541 22.8 541L0 541Z" fill="#075f0e"></path></svg>